# xmcd
#
# Track frame offsets: 
#        150
#        18354
#        34062
#        49081
#        70737
#        85436
#        102335
#        118890
#        134835
#        148848
#        166879
#
# Disc length: 2438 seconds
#
# Revision: 0
# Processed by: cddbd v1.5.2PL0 Copyright (c) Steve Scherf et al.
# Submitted via: ExactAudioCopy v1.3
#
DISCID=a009840b
DTITLE=Micky and the Motorcars - Long Time Comin'
DYEAR=2019
DGENRE=Country
TTITLE0=Road To You
TTITLE1=Rodeo Girl
TTITLE2=Alone Again Tonight
TTITLE3=Lions Of Kandahar
TTITLE4=All Looks The Same
TTITLE5=Thank My Mother's God
TTITLE6=Break My Heart
TTITLE7=Run Into You
TTITLE8=Stranger Tonight
TTITLE9=Hold This Town Together
TTITLE10=Long Time Comin'
EXTD=
EXTT0=
EXTT1=
EXTT2=
EXTT3=
EXTT4=
EXTT5=
EXTT6=
EXTT7=
EXTT8=
EXTT9=
EXTT10=
PLAYORDER=
